<svg width="167" height="58" viewBox="0 0 167 58" fill="none" xmlns="http://www.w3.org/2000/svg">
<path d="M27.2869 25.8182C27.223 25.2784 26.9638 24.8594 26.5092 24.5611C26.0547 24.2628 25.4972 24.1136 24.8366 24.1136C24.3537 24.1136 23.9311 24.1918 23.5689 24.348C23.2102 24.5043 22.9297 24.7191 22.7273 24.9925C22.5284 25.266 22.429 25.5767 22.429 25.9247C22.429 26.2159 22.4982 26.4663 22.6367 26.6758C22.7788 26.8817 22.9599 27.054 23.18 27.1925C23.4002 27.3274 23.631 27.4393 23.8725 27.5281C24.114 27.6133 24.3359 27.6825 24.5384 27.7358L25.6463 28.0341C25.9304 28.1087 26.2464 28.2116 26.5945 28.343C26.946 28.4744 27.2816 28.6538 27.6012 28.881C27.9244 29.1048 28.1907 29.3924 28.4002 29.744C28.6097 30.0955 28.7145 30.527 28.7145 31.0384C28.7145 31.6278 28.56 32.1605 28.2511 32.6364C27.9457 33.1122 27.4982 33.4904 26.9087 33.771C26.3228 34.0515 25.6108 34.1918 24.7727 34.1918C23.9915 34.1918 23.315 34.0657 22.7433 33.8136C22.1751 33.5614 21.7276 33.2099 21.4009 32.7589C21.0778 32.3079 20.8949 31.7841 20.8523 31.1875H22.2159C22.2514 31.5994 22.3899 31.9403 22.6314 32.2102C22.8764 32.4766 23.1854 32.6754 23.5582 32.8068C23.9347 32.9347 24.3395 32.9986 24.7727 32.9986C25.277 32.9986 25.7298 32.9169 26.131 32.7536C26.5323 32.5866 26.8501 32.3558 27.0845 32.0611C27.3189 31.7628 27.4361 31.4148 27.4361 31.017C27.4361 30.6548 27.3349 30.3601 27.1325 30.1328C26.93 29.9055 26.6637 29.7209 26.3335 29.5788C26.0032 29.4368 25.6463 29.3125 25.2628 29.206L23.9205 28.8224C23.0682 28.5774 22.3935 28.2276 21.8963 27.7731C21.3991 27.3185 21.1506 26.7237 21.1506 25.9886C21.1506 25.3778 21.3157 24.8452 21.646 24.3906C21.9798 23.9325 22.4272 23.5774 22.9883 23.3253C23.5529 23.0696 24.1832 22.9418 24.8793 22.9418C25.5824 22.9418 26.2074 23.0678 26.7543 23.32C27.3011 23.5685 27.7344 23.9094 28.054 24.3427C28.3771 24.7759 28.5476 25.2678 28.5653 25.8182H27.2869ZM31.9731 29.0781V34H30.716V23.0909H31.9731V27.0966H32.0796C32.2714 26.674 32.559 26.3384 32.9426 26.0898C33.3296 25.8377 33.8445 25.7116 34.4873 25.7116C35.0448 25.7116 35.5331 25.8235 35.9521 26.0472C36.3712 26.2674 36.6961 26.6065 36.9269 27.0646C37.1613 27.5192 37.2785 28.098 37.2785 28.8011V34H36.0214V28.8864C36.0214 28.2365 35.8527 27.734 35.5154 27.3789C35.1816 27.0202 34.7181 26.8409 34.1251 26.8409C33.7132 26.8409 33.3438 26.9279 33.0171 27.1019C32.694 27.2759 32.4383 27.5298 32.2501 27.8636C32.0654 28.1974 31.9731 28.6023 31.9731 29.0781ZM41.986 34.1918C41.4675 34.1918 40.997 34.0941 40.5744 33.8988C40.1518 33.6999 39.8162 33.4141 39.5676 33.0412C39.3191 32.6648 39.1948 32.2102 39.1948 31.6776C39.1948 31.2088 39.2871 30.8288 39.4718 30.5376C39.6564 30.2429 39.9032 30.0121 40.2122 29.8452C40.5211 29.6783 40.862 29.554 41.2349 29.4723C41.6113 29.3871 41.9895 29.3196 42.3695 29.2699C42.8667 29.206 43.2697 29.158 43.5787 29.1261C43.8912 29.0906 44.1184 29.032 44.2605 28.9503C44.4061 28.8686 44.4789 28.7266 44.4789 28.5241V28.4815C44.4789 27.956 44.335 27.5476 44.0474 27.2564C43.7633 26.9652 43.3319 26.8196 42.753 26.8196C42.1529 26.8196 41.6824 26.951 41.3414 27.2138C41.0005 27.4766 40.7608 27.7571 40.6223 28.0554L39.4292 27.6293C39.6422 27.1321 39.9263 26.745 40.2814 26.468C40.6401 26.1875 41.0307 25.9922 41.4533 25.8821C41.8794 25.7685 42.2985 25.7116 42.7104 25.7116C42.9732 25.7116 43.275 25.7436 43.6159 25.8075C43.9604 25.8679 44.2924 25.994 44.612 26.1857C44.9352 26.3775 45.2033 26.6669 45.4164 27.054C45.6294 27.4411 45.736 27.9595 45.736 28.6094V34H44.4789V32.892H44.415C44.3297 33.0696 44.1877 33.2596 43.9888 33.462C43.79 33.6644 43.5254 33.8366 43.1951 33.9787C42.8649 34.1207 42.4618 34.1918 41.986 34.1918ZM42.1777 33.0625C42.6749 33.0625 43.0939 32.9648 43.4348 32.7695C43.7793 32.5742 44.0385 32.3221 44.2125 32.0131C44.3901 31.7042 44.4789 31.3793 44.4789 31.0384V29.8878C44.4256 29.9517 44.3084 30.0103 44.1273 30.0636C43.9498 30.1133 43.7438 30.1577 43.5094 30.1967C43.2786 30.2322 43.0531 30.2642 42.8329 30.2926C42.6163 30.3175 42.4405 30.3388 42.3056 30.3565C41.9789 30.3991 41.6735 30.4684 41.3894 30.5643C41.1088 30.6566 40.8816 30.7969 40.7076 30.9851C40.5371 31.1697 40.4519 31.4219 40.4519 31.7415C40.4519 32.1783 40.6135 32.5085 40.9366 32.7322C41.2633 32.9524 41.677 33.0625 42.1777 33.0625ZM48.0305 34V25.8182H49.2449V27.054H49.3302C49.4793 26.6491 49.7492 26.3207 50.1398 26.0685C50.5305 25.8164 50.9708 25.6903 51.4608 25.6903C51.5532 25.6903 51.6686 25.6921 51.8071 25.6957C51.9456 25.6992 52.0503 25.7045 52.1214 25.7116V26.9901C52.0787 26.9794 51.9811 26.9634 51.8284 26.9421C51.6792 26.9173 51.5212 26.9048 51.3543 26.9048C50.9566 26.9048 50.6015 26.9883 50.289 27.1552C49.98 27.3185 49.735 27.5458 49.5539 27.837C49.3763 28.1246 49.2876 28.4531 49.2876 28.8224V34H48.0305ZM56.7929 34.1705C56.0045 34.1705 55.3245 33.9964 54.7528 33.6484C54.1846 33.2969 53.746 32.8068 53.4371 32.1783C53.1317 31.5462 52.979 30.8111 52.979 29.973C52.979 29.1349 53.1317 28.3963 53.4371 27.7571C53.746 27.1143 54.1757 26.6136 54.7261 26.255C55.2801 25.8928 55.9264 25.7116 56.665 25.7116C57.0912 25.7116 57.512 25.7827 57.9275 25.9247C58.343 26.0668 58.7211 26.2976 59.0621 26.6172C59.403 26.9332 59.6746 27.3523 59.877 27.8743C60.0795 28.3963 60.1807 29.0391 60.1807 29.8026V30.3352H53.8738V29.2486H58.9023C58.9023 28.7869 58.8099 28.375 58.6253 28.0128C58.4442 27.6506 58.1849 27.3647 57.8476 27.1552C57.5138 26.9457 57.1196 26.8409 56.665 26.8409C56.1643 26.8409 55.7311 26.9652 55.3653 27.2138C55.0031 27.4588 54.7243 27.7784 54.529 28.1726C54.3337 28.5668 54.2361 28.9893 54.2361 29.4403V30.1648C54.2361 30.7827 54.3426 31.3065 54.5557 31.7362C54.7723 32.1623 55.0724 32.4872 55.4559 32.7109C55.8394 32.9311 56.2851 33.0412 56.7929 33.0412C57.1231 33.0412 57.4214 32.995 57.6878 32.9027C57.9577 32.8068 58.1903 32.6648 58.3856 32.4766C58.5809 32.2848 58.7318 32.0469 58.8383 31.7628L60.0528 32.1037C59.925 32.5156 59.7101 32.8778 59.4083 33.1903C59.1064 33.4993 58.7336 33.7408 58.2897 33.9148C57.8458 34.0852 57.3469 34.1705 56.7929 34.1705ZM69.8699 25.8182V26.8835H65.6299V25.8182H69.8699ZM66.8657 23.858H68.1228V31.6562C68.1228 32.0114 68.1743 32.2777 68.2773 32.4553C68.3838 32.6293 68.5187 32.7464 68.6821 32.8068C68.849 32.8636 69.0248 32.892 69.2094 32.892C69.3479 32.892 69.4616 32.8849 69.5503 32.8707C69.6391 32.853 69.7101 32.8388 69.7634 32.8281L70.0191 33.9574C69.9339 33.9893 69.8149 34.0213 69.6622 34.0533C69.5095 34.0888 69.316 34.1065 69.0816 34.1065C68.7265 34.1065 68.3785 34.0302 68.0376 33.8775C67.7002 33.7248 67.4197 33.4922 67.1959 33.1797C66.9758 32.8672 66.8657 32.473 66.8657 31.9972V23.858ZM73.1938 29.0781V34H71.9367V23.0909H73.1938V27.0966H73.3003C73.4921 26.674 73.7797 26.3384 74.1633 26.0898C74.5503 25.8377 75.0653 25.7116 75.708 25.7116C76.2655 25.7116 76.7538 25.8235 77.1729 26.0472C77.5919 26.2674 77.9168 26.6065 78.1476 27.0646C78.382 27.5192 78.4992 28.098 78.4992 28.8011V34H77.2421V28.8864C77.2421 28.2365 77.0734 27.734 76.7361 27.3789C76.4023 27.0202 75.9388 26.8409 75.3458 26.8409C74.9339 26.8409 74.5645 26.9279 74.2378 27.1019C73.9147 27.2759 73.659 27.5298 73.4708 27.8636C73.2861 28.1974 73.1938 28.6023 73.1938 29.0781ZM84.2294 34.1705C83.4411 34.1705 82.761 33.9964 82.1893 33.6484C81.6211 33.2969 81.1825 32.8068 80.8736 32.1783C80.5682 31.5462 80.4155 30.8111 80.4155 29.973C80.4155 29.1349 80.5682 28.3963 80.8736 27.7571C81.1825 27.1143 81.6122 26.6136 82.1626 26.255C82.7166 25.8928 83.3629 25.7116 84.1016 25.7116C84.5277 25.7116 84.9485 25.7827 85.364 25.9247C85.7795 26.0668 86.1577 26.2976 86.4986 26.6172C86.8395 26.9332 87.1112 27.3523 87.3136 27.8743C87.516 28.3963 87.6172 29.0391 87.6172 29.8026V30.3352H81.3104V29.2486H86.3388C86.3388 28.7869 86.2464 28.375 86.0618 28.0128C85.8807 27.6506 85.6214 27.3647 85.2841 27.1552C84.9503 26.9457 84.5561 26.8409 84.1016 26.8409C83.6009 26.8409 83.1676 26.9652 82.8018 27.2138C82.4396 27.4588 82.1609 27.7784 81.9656 28.1726C81.7702 28.5668 81.6726 28.9893 81.6726 29.4403V30.1648C81.6726 30.7827 81.7791 31.3065 81.9922 31.7362C82.2088 32.1623 82.5089 32.4872 82.8924 32.7109C83.2759 32.9311 83.7216 33.0412 84.2294 33.0412C84.5597 33.0412 84.858 32.995 85.1243 32.9027C85.3942 32.8068 85.6268 32.6648 85.8221 32.4766C86.0174 32.2848 86.1683 32.0469 86.2749 31.7628L87.4893 32.1037C87.3615 32.5156 87.1467 32.8778 86.8448 33.1903C86.543 33.4993 86.1701 33.7408 85.7262 33.9148C85.2823 34.0852 84.7834 34.1705 84.2294 34.1705ZM93.9187 34V23.0909H97.6048C98.457 23.0909 99.1566 23.2365 99.7035 23.5277C100.25 23.8153 100.655 24.2113 100.918 24.7156C101.181 25.2198 101.312 25.7933 101.312 26.4361C101.312 27.0788 101.181 27.6488 100.918 28.146C100.655 28.6431 100.252 29.0337 99.7088 29.3178C99.1655 29.5984 98.4712 29.7386 97.6261 29.7386H94.6431V28.5455H97.5835C98.1658 28.5455 98.6346 28.4602 98.9897 28.2898C99.3484 28.1193 99.6076 27.8778 99.7674 27.5653C99.9308 27.2493 100.012 26.8729 100.012 26.4361C100.012 25.9993 99.9308 25.6175 99.7674 25.2908C99.604 24.9641 99.343 24.712 98.9844 24.5344C98.6257 24.3533 98.1516 24.2628 97.5621 24.2628H95.2397V34H93.9187ZM99.0536 29.0994L101.738 34H100.204L97.5621 29.0994H99.0536ZM106.685 34.1705C105.897 34.1705 105.217 33.9964 104.645 33.6484C104.077 33.2969 103.639 32.8068 103.33 32.1783C103.024 31.5462 102.872 30.8111 102.872 29.973C102.872 29.1349 103.024 28.3963 103.33 27.7571C103.639 27.1143 104.068 26.6136 104.619 26.255C105.173 25.8928 105.819 25.7116 106.558 25.7116C106.984 25.7116 107.405 25.7827 107.82 25.9247C108.236 26.0668 108.614 26.2976 108.955 26.6172C109.296 26.9332 109.567 27.3523 109.77 27.8743C109.972 28.3963 110.073 29.0391 110.073 29.8026V30.3352H103.766V29.2486H108.795C108.795 28.7869 108.703 28.375 108.518 28.0128C108.337 27.6506 108.078 27.3647 107.74 27.1552C107.406 26.9457 107.012 26.8409 106.558 26.8409C106.057 26.8409 105.624 26.9652 105.258 27.2138C104.896 27.4588 104.617 27.7784 104.422 28.1726C104.226 28.5668 104.129 28.9893 104.129 29.4403V30.1648C104.129 30.7827 104.235 31.3065 104.448 31.7362C104.665 32.1623 104.965 32.4872 105.348 32.7109C105.732 32.9311 106.178 33.0412 106.685 33.0412C107.016 33.0412 107.314 32.995 107.58 32.9027C107.85 32.8068 108.083 32.6648 108.278 32.4766C108.473 32.2848 108.624 32.0469 108.731 31.7628L109.945 32.1037C109.818 32.5156 109.603 32.8778 109.301 33.1903C108.999 33.4993 108.626 33.7408 108.182 33.9148C107.738 34.0852 107.239 34.1705 106.685 34.1705ZM115.309 34.1705C114.542 34.1705 113.882 33.9893 113.328 33.6271C112.774 33.2649 112.348 32.766 112.049 32.1303C111.751 31.4947 111.602 30.7685 111.602 29.9517C111.602 29.1207 111.755 28.3874 112.06 27.7518C112.369 27.1126 112.799 26.6136 113.349 26.255C113.903 25.8928 114.549 25.7116 115.288 25.7116C115.863 25.7116 116.382 25.8182 116.843 26.0312C117.305 26.2443 117.683 26.5426 117.978 26.9261C118.273 27.3097 118.456 27.7571 118.527 28.2685H117.27C117.174 27.8956 116.961 27.5653 116.63 27.2777C116.304 26.9865 115.863 26.8409 115.309 26.8409C114.819 26.8409 114.39 26.9687 114.02 27.2244C113.655 27.4766 113.369 27.8335 113.163 28.2951C112.96 28.7532 112.859 29.2912 112.859 29.9091C112.859 30.5412 112.959 31.0916 113.157 31.5604C113.36 32.0291 113.644 32.3931 114.01 32.6523C114.379 32.9116 114.812 33.0412 115.309 33.0412C115.636 33.0412 115.933 32.9844 116.199 32.8707C116.465 32.7571 116.691 32.5938 116.875 32.3807C117.06 32.1676 117.191 31.9119 117.27 31.6136H118.527C118.456 32.0966 118.28 32.5316 117.999 32.9187C117.722 33.3022 117.355 33.6076 116.897 33.8349C116.442 34.0586 115.913 34.1705 115.309 34.1705ZM123.795 34.1705C123.006 34.1705 122.326 33.9964 121.755 33.6484C121.187 33.2969 120.748 32.8068 120.439 32.1783C120.134 31.5462 119.981 30.8111 119.981 29.973C119.981 29.1349 120.134 28.3963 120.439 27.7571C120.748 27.1143 121.178 26.6136 121.728 26.255C122.282 25.8928 122.928 25.7116 123.667 25.7116C124.093 25.7116 124.514 25.7827 124.929 25.9247C125.345 26.0668 125.723 26.2976 126.064 26.6172C126.405 26.9332 126.677 27.3523 126.879 27.8743C127.081 28.3963 127.183 29.0391 127.183 29.8026V30.3352H120.876V29.2486H125.904C125.904 28.7869 125.812 28.375 125.627 28.0128C125.446 27.6506 125.187 27.3647 124.85 27.1552C124.516 26.9457 124.122 26.8409 123.667 26.8409C123.166 26.8409 122.733 26.9652 122.367 27.2138C122.005 27.4588 121.726 27.7784 121.531 28.1726C121.336 28.5668 121.238 28.9893 121.238 29.4403V30.1648C121.238 30.7827 121.345 31.3065 121.558 31.7362C121.774 32.1623 122.074 32.4872 122.458 32.7109C122.841 32.9311 123.287 33.0412 123.795 33.0412C124.125 33.0412 124.423 32.995 124.69 32.9027C124.96 32.8068 125.192 32.6648 125.388 32.4766C125.583 32.2848 125.734 32.0469 125.84 31.7628L127.055 32.1037C126.927 32.5156 126.712 32.8778 126.41 33.1903C126.108 33.4993 125.736 33.7408 125.292 33.9148C124.848 34.0852 124.349 34.1705 123.795 34.1705ZM129.095 34V25.8182H130.352V34H129.095ZM129.734 24.4545C129.489 24.4545 129.278 24.3711 129.1 24.2042C128.926 24.0373 128.839 23.8366 128.839 23.6023C128.839 23.3679 128.926 23.1673 129.1 23.0004C129.278 22.8335 129.489 22.75 129.734 22.75C129.979 22.75 130.189 22.8335 130.363 23.0004C130.54 23.1673 130.629 23.3679 130.629 23.6023C130.629 23.8366 130.54 24.0373 130.363 24.2042C130.189 24.3711 129.979 24.4545 129.734 24.4545ZM132.654 37.0682V25.8182H133.869V27.1179H134.018C134.11 26.9759 134.238 26.7947 134.402 26.5746C134.569 26.3509 134.806 26.152 135.115 25.978C135.428 25.8004 135.85 25.7116 136.383 25.7116C137.072 25.7116 137.679 25.8839 138.205 26.2283C138.73 26.5728 139.141 27.0611 139.435 27.6932C139.73 28.3253 139.877 29.071 139.877 29.9304C139.877 30.7969 139.73 31.5479 139.435 32.1836C139.141 32.8157 138.732 33.3058 138.21 33.6538C137.688 33.9982 137.086 34.1705 136.404 34.1705C135.879 34.1705 135.458 34.0835 135.142 33.9094C134.826 33.7319 134.583 33.5312 134.412 33.3075C134.242 33.0803 134.11 32.892 134.018 32.7429H133.912V37.0682H132.654ZM133.89 29.9091C133.89 30.527 133.981 31.0721 134.162 31.5444C134.343 32.0131 134.608 32.3807 134.956 32.647C135.304 32.9098 135.73 33.0412 136.234 33.0412C136.76 33.0412 137.198 32.9027 137.55 32.6257C137.905 32.3452 138.171 31.9687 138.349 31.4964C138.53 31.0206 138.62 30.4915 138.62 29.9091C138.62 29.3338 138.532 28.8153 138.354 28.3537C138.18 27.8885 137.915 27.521 137.56 27.2511C137.209 26.9776 136.767 26.8409 136.234 26.8409C135.723 26.8409 135.293 26.9705 134.945 27.2298C134.597 27.4854 134.334 27.8441 134.157 28.3058C133.979 28.7638 133.89 29.2983 133.89 29.9091ZM145.353 25.8182V26.8835H141.113V25.8182H145.353ZM142.349 23.858H143.606V31.6562C143.606 32.0114 143.658 32.2777 143.761 32.4553C143.867 32.6293 144.002 32.7464 144.165 32.8068C144.332 32.8636 144.508 32.892 144.693 32.892C144.831 32.892 144.945 32.8849 145.034 32.8707C145.123 32.853 145.194 32.8388 145.247 32.8281L145.502 33.9574C145.417 33.9893 145.298 34.0213 145.146 34.0533C144.993 34.0888 144.799 34.1065 144.565 34.1065C144.21 34.1065 143.862 34.0302 143.521 33.8775C143.184 33.7248 142.903 33.4922 142.679 33.1797C142.459 32.8672 142.349 32.473 142.349 31.9972V23.858Z" fill="white"/>
<rect x="1.5" y="1.5" width="164" height="55" rx="19.5" stroke="white" stroke-width="3"/>
</svg>
