<svg width="11" height="11" viewBox="0 0 11 11" fill="none" xmlns="http://www.w3.org/2000/svg">
<path d="M10.2994 5.14972C10.2994 2.30482 7.99268 0 5.14972 0C2.30482 0 0 2.30482 0 5.14972C0 7.71942 1.88254 9.85012 4.34507 10.236V6.63863H3.03737V5.15004H4.34507V4.01485C4.34507 2.72452 5.1127 2.01193 6.28941 2.01193C6.85298 2.01193 7.44295 2.11235 7.44295 2.11235V3.3795H6.79248C6.15391 3.3795 5.95436 3.77699 5.95436 4.18414V5.14972H7.38244L7.15296 6.63831H5.95436V10.2357C8.41496 9.8498 10.2994 7.7191 10.2994 5.14939V5.14972Z" fill="white"/>
</svg>
