<svg width="10" height="10" viewBox="0 0 10 10" fill="none" xmlns="http://www.w3.org/2000/svg">
<path d="M4.99866 3.33262C4.08055 3.33262 3.33131 4.08188 3.33131 5C3.33131 5.91812 4.08055 6.66738 4.99866 6.66738C5.91676 6.66738 6.666 5.91812 6.666 5C6.666 4.08188 5.91676 3.33262 4.99866 3.33262V3.33262ZM9.99944 5C9.99944 4.30953 10.0057 3.62532 9.96692 2.93611C9.92815 2.13556 9.74553 1.42508 9.16014 0.839689C8.57351 0.253043 7.86429 0.0716702 7.06376 0.032894C6.37331 -0.00588219 5.68911 0.000372057 4.99991 0.000372057C4.30945 0.000372057 3.62525 -0.00588219 2.93605 0.032894C2.13552 0.0716702 1.42506 0.254294 0.839674 0.839689C0.253038 1.42634 0.0716689 2.13556 0.0328934 2.93611C-0.00588208 3.62657 0.00037205 4.31078 0.00037205 5C0.00037205 5.68922 -0.00588208 6.37468 0.0328934 7.06389C0.0716689 7.86444 0.254289 8.57491 0.839674 9.16031C1.42631 9.74696 2.13552 9.92833 2.93605 9.96711C3.6265 10.0059 4.3107 9.99963 4.99991 9.99963C5.69036 9.99963 6.37456 10.0059 7.06376 9.96711C7.86429 9.92833 8.57476 9.74571 9.16014 9.16031C9.74678 8.57366 9.92815 7.86444 9.96692 7.06389C10.0069 6.37468 9.99944 5.69047 9.99944 5ZM4.99866 7.56548C3.57897 7.56548 2.43322 6.41971 2.43322 5C2.43322 3.58029 3.57897 2.43452 4.99866 2.43452C6.41834 2.43452 7.56409 3.58029 7.56409 5C7.56409 6.41971 6.41834 7.56548 4.99866 7.56548V7.56548ZM7.66916 2.9286C7.33769 2.9286 7.07002 2.66092 7.07002 2.32945C7.07002 1.99797 7.33769 1.73029 7.66916 1.73029C8.00063 1.73029 8.2683 1.99797 8.2683 2.32945C8.2684 2.40816 8.25297 2.48611 8.2229 2.55885C8.19282 2.63159 8.14869 2.69768 8.09304 2.75333C8.03738 2.80899 7.9713 2.85312 7.89856 2.88319C7.82582 2.91327 7.74787 2.9287 7.66916 2.9286V2.9286Z" fill="white"/>
</svg>
