<svg width="12" height="10" viewBox="0 0 12 10" fill="none" xmlns="http://www.w3.org/2000/svg">
<path d="M10.7665 2.49218C10.7741 2.60155 10.7741 2.71094 10.7741 2.82031C10.7741 6.15623 8.29953 10 3.77666 10C2.38325 10 1.08884 9.58592 0 8.8672C0.197977 8.89062 0.388314 8.89844 0.593909 8.89844C1.74364 8.89844 2.80203 8.50001 3.64722 7.82032C2.56599 7.79688 1.6599 7.07032 1.34771 6.07031C1.50001 6.09373 1.65228 6.10936 1.81219 6.10936C2.033 6.10936 2.25383 6.0781 2.4594 6.02344C1.3325 5.78905 0.487291 4.77343 0.487291 3.54687V3.51563C0.814691 3.70313 1.19543 3.82032 1.59896 3.83593C0.936519 3.38279 0.502525 2.60936 0.502525 1.73436C0.502525 1.26562 0.624331 0.835928 0.837542 0.460926C2.04821 1.99217 3.86802 2.99216 5.90862 3.10155C5.87055 2.91405 5.8477 2.71876 5.8477 2.52344C5.8477 1.1328 6.94416 0 8.3071 0C9.01522 0 9.65481 0.304687 10.1041 0.796875C10.6599 0.687505 11.1929 0.476557 11.665 0.187501C11.4822 0.773452 11.0939 1.26564 10.5838 1.57812C11.0787 1.52346 11.5584 1.3828 12 1.18751C11.665 1.68749 11.2462 2.13278 10.7665 2.49218Z" fill="white"/>
</svg>
