<svg width="314" height="56" viewBox="0 0 314 56" fill="none" xmlns="http://www.w3.org/2000/svg">
<ellipse cx="31.055" cy="24.5" rx="21.4247" ry="24.5" fill="#FFC73B"/>
<ellipse cx="35.4656" cy="7.58366" rx="3.15068" ry="2.91667" fill="black"/>
<path d="M9 12.2497V23.333C10.0082 25.1997 11.1005 23.7219 11.5205 22.7497V13.4163H27.274L14.6712 27.4163C12.1507 30.2163 14.0411 30.9163 15.3014 30.9163H22.2329L10.2603 44.9163C8.34523 48.879 10.5383 47.7969 12.1507 46.6663C15.9315 42.3886 23.9973 33.2497 26.0137 30.9163C28.0301 28.583 26.4338 27.6108 25.3836 27.4163H18.4521L31.0548 12.833C32.063 11.8997 30.6347 11.2775 29.7945 11.083H10.8904C9.37808 11.083 9 11.8608 9 12.2497Z" fill="black"/>
<path d="M31.0548 29.1664L15.3014 46.6664C13.7891 49.4667 15.9315 48.9995 17.1918 48.4159L32.9452 30.9164C33.9535 28.1164 32.1051 28.583 31.0548 29.1664Z" fill="black"/>
<path d="M54.3697 12.8326C53.8656 11.4326 52.8994 12.2492 52.4793 12.8326L22.8629 46.0826C21.3506 49.3492 23.493 48.6109 24.7533 47.8332L52.4793 16.9165V22.7498C53.4875 25.5498 54.5798 23.9165 54.9999 22.7498C54.9999 20.0274 54.8738 14.2326 54.3697 12.8326Z" fill="black"/>
<path d="M283.171 40L282.746 38.045H280.128L280.417 36.719H282.406L280.502 28.117H281.862L284.531 40H283.171ZM277.527 40L279.805 29.936H280.077L280.587 32.299L278.87 40H277.527ZM289.032 40.085C288.408 40.085 287.881 39.9717 287.451 39.745C287.02 39.5183 286.669 39.235 286.397 38.895C286.136 38.5437 285.943 38.1923 285.819 37.841C285.694 37.4783 285.632 37.1723 285.632 36.923V31.194C285.632 30.9333 285.694 30.6273 285.819 30.276C285.943 29.9133 286.136 29.562 286.397 29.222C286.669 28.8707 287.02 28.5817 287.451 28.355C287.881 28.117 288.408 27.998 289.032 27.998V29.358C288.658 29.358 288.34 29.4317 288.08 29.579C287.83 29.715 287.621 29.885 287.451 30.089C287.292 30.2817 287.179 30.48 287.111 30.684C287.043 30.888 287.009 31.058 287.009 31.194V36.923C287.009 37.059 287.043 37.229 287.111 37.433C287.19 37.637 287.309 37.841 287.468 38.045C287.626 38.2377 287.836 38.402 288.097 38.538C288.357 38.674 288.669 38.742 289.032 38.742V40.085ZM289.848 40.085V38.742C290.052 38.7193 290.273 38.6683 290.511 38.589C290.76 38.4983 290.987 38.3623 291.191 38.181C291.395 37.9883 291.542 37.7447 291.633 37.45C291.667 37.3593 291.689 37.263 291.701 37.161C291.723 37.059 291.735 36.9627 291.735 36.872C291.746 36.8153 291.752 36.7643 291.752 36.719C291.763 36.6623 291.769 36.6227 291.769 36.6L293.044 36.906C293.044 37.5067 292.891 38.0507 292.585 38.538C292.279 39.014 291.882 39.3937 291.395 39.677C290.907 39.949 290.392 40.085 289.848 40.085ZM291.735 31.568C291.735 31.5227 291.735 31.4773 291.735 31.432C291.735 31.3867 291.735 31.3413 291.735 31.296C291.723 31.2053 291.712 31.1203 291.701 31.041C291.689 30.9503 291.667 30.8597 291.633 30.769C291.519 30.4403 291.372 30.1853 291.191 30.004C291.021 29.8113 290.839 29.6753 290.647 29.596C290.465 29.5053 290.301 29.4487 290.154 29.426C290.006 29.392 289.904 29.3693 289.848 29.358V27.998C290.256 27.998 290.647 28.0887 291.021 28.27C291.406 28.4513 291.752 28.695 292.058 29.001C292.364 29.307 292.602 29.6527 292.772 30.038C292.953 30.4233 293.044 30.82 293.044 31.228L291.735 31.568ZM294.282 40V28.1H300.47V29.443H295.642V33.404H298.872V34.747H295.642V38.657H300.47V40H294.282Z" fill="#EE3B41"/>
<path d="M307.727 33.9559H303.909L302 36.1538H308.364C309.763 35.5963 309.631 35.0655 309.637 35.0548V33.4064L307.727 31.758V33.9559Z" fill="#EC3A41"/>
<path d="M309 30.1095C307.473 29.67 307.515 30.659 307.727 31.2085L311.546 35.0548L309.637 37.2526V40L313.455 36.1537C314.446 35.1506 313.861 34.1183 313.455 33.9558L309 30.1095Z" fill="#EC3A41"/>
<path d="M274.966 47L276.682 41.9106H277.516L279.231 47H278.517L278.056 45.5781H276.111L275.649 47H274.966ZM277.868 45.0005L277.082 42.6011L276.299 45.0005H277.868ZM282.926 43.4453C282.926 43.6663 282.886 43.876 282.807 44.0742C282.729 44.2702 282.621 44.4377 282.482 44.5767C282.306 44.7498 282.1 44.8809 281.863 44.9697C281.626 45.0586 281.327 45.103 280.964 45.103H280.39V47H279.713V41.9106H280.992C281.292 41.9106 281.549 41.9357 281.761 41.9858C281.973 42.036 282.16 42.1169 282.321 42.2285C282.51 42.3584 282.659 42.5236 282.766 42.7241C282.873 42.9224 282.926 43.1628 282.926 43.4453ZM282.222 43.4624C282.222 43.2869 282.191 43.1343 282.13 43.0044C282.071 42.8745 281.979 42.7686 281.856 42.6865C281.749 42.6159 281.624 42.5658 281.48 42.5361C281.339 42.5065 281.163 42.4917 280.951 42.4917H280.39V44.5254H280.852C281.125 44.5254 281.346 44.5037 281.515 44.4604C281.683 44.4149 281.823 44.3351 281.935 44.2212C282.035 44.1187 282.108 44.007 282.154 43.8862C282.199 43.7655 282.222 43.6242 282.222 43.4624ZM286.789 43.4453C286.789 43.6663 286.749 43.876 286.669 44.0742C286.591 44.2702 286.483 44.4377 286.344 44.5767C286.169 44.7498 285.963 44.8809 285.726 44.9697C285.489 45.0586 285.189 45.103 284.827 45.103H284.252V47H283.576V41.9106H284.854C285.155 41.9106 285.411 41.9357 285.623 41.9858C285.835 42.036 286.022 42.1169 286.184 42.2285C286.373 42.3584 286.521 42.5236 286.628 42.7241C286.735 42.9224 286.789 43.1628 286.789 43.4453ZM286.084 43.4624C286.084 43.2869 286.054 43.1343 285.992 43.0044C285.933 42.8745 285.842 42.7686 285.719 42.6865C285.612 42.6159 285.486 42.5658 285.343 42.5361C285.201 42.5065 285.025 42.4917 284.813 42.4917H284.252V44.5254H284.714C284.987 44.5254 285.208 44.5037 285.377 44.4604C285.546 44.4149 285.686 44.3351 285.797 44.2212C285.898 44.1187 285.971 44.007 286.016 43.8862C286.062 43.7655 286.084 43.6242 286.084 43.4624ZM291.379 47H290.5L288.887 44.9766H288.115V47H287.438V41.9106H288.75C289.042 41.9106 289.286 41.9266 289.482 41.9585C289.68 41.9904 289.868 42.0645 290.046 42.1807C290.224 42.2946 290.364 42.4416 290.466 42.6216C290.571 42.8016 290.624 43.0249 290.624 43.2915C290.624 43.6652 290.529 43.9774 290.34 44.228C290.151 44.4787 289.893 44.6644 289.567 44.7852L291.379 47ZM289.916 43.3428C289.916 43.1947 289.89 43.0636 289.837 42.9497C289.785 42.8335 289.704 42.7389 289.595 42.666C289.499 42.6022 289.387 42.5578 289.26 42.5327C289.132 42.5054 288.974 42.4917 288.785 42.4917H288.115V44.4126H288.709C288.903 44.4126 289.077 44.3955 289.232 44.3613C289.387 44.3271 289.52 44.2565 289.629 44.1494C289.727 44.0537 289.799 43.9398 289.844 43.8076C289.892 43.6755 289.916 43.5205 289.916 43.3428ZM295.385 42.4951C295.578 42.7184 295.729 42.9953 295.836 43.3257C295.943 43.6561 295.997 44.0332 295.997 44.457C295.997 44.8695 295.944 45.242 295.839 45.5747C295.735 45.9074 295.583 46.1865 295.385 46.4121C295.177 46.6491 294.935 46.8245 294.657 46.9385C294.381 47.0501 294.077 47.106 293.744 47.106C293.4 47.106 293.09 47.0479 292.814 46.9316C292.539 46.8154 292.302 46.6423 292.104 46.4121C291.908 46.1865 291.757 45.9085 291.652 45.5781C291.548 45.2477 291.495 44.874 291.495 44.457C291.495 44.0286 291.548 43.6527 291.652 43.3291C291.759 43.0055 291.911 42.7275 292.107 42.4951C292.303 42.2695 292.539 42.0986 292.814 41.9824C293.092 41.8639 293.402 41.8047 293.744 41.8047C294.09 41.8047 294.403 41.8651 294.681 41.9858C294.959 42.1066 295.193 42.2764 295.385 42.4951ZM295.292 44.457C295.292 44.1198 295.256 43.8213 295.183 43.5615C295.11 43.3018 295.008 43.0864 294.875 42.9155C294.741 42.7401 294.578 42.609 294.387 42.5225C294.198 42.4336 293.985 42.3892 293.748 42.3892C293.501 42.3892 293.286 42.4325 293.102 42.519C292.919 42.6034 292.757 42.7355 292.616 42.9155C292.482 43.0887 292.378 43.3063 292.305 43.5684C292.235 43.8304 292.199 44.1266 292.199 44.457C292.199 45.1247 292.339 45.6362 292.62 45.9917C292.9 46.3449 293.276 46.5215 293.748 46.5215C294.219 46.5215 294.594 46.3449 294.872 45.9917C295.152 45.6362 295.292 45.1247 295.292 44.457ZM300.43 41.9106L298.68 47H297.948L296.198 41.9106H296.923L298.331 46.1353L299.739 41.9106H300.43ZM300.918 47V41.9106H304.101V42.5122H301.595V43.9067H303.93V44.5083H301.595V46.3984H304.101V47H300.918ZM308.862 44.4604C308.862 44.9253 308.767 45.3446 308.578 45.7183C308.391 46.092 308.139 46.3836 307.823 46.5933C307.565 46.755 307.303 46.8633 307.037 46.918C306.772 46.9727 306.434 47 306.021 47H304.849V41.9106H306.008C306.486 41.9106 306.861 41.9471 307.132 42.02C307.406 42.0907 307.638 42.1886 307.83 42.314C308.158 42.5304 308.412 42.8187 308.592 43.1787C308.772 43.5365 308.862 43.9637 308.862 44.4604ZM308.158 44.4502C308.158 44.0583 308.093 43.7244 307.963 43.4487C307.833 43.1707 307.64 42.9543 307.385 42.7993C307.205 42.6899 307.013 42.6113 306.808 42.5635C306.603 42.5156 306.347 42.4917 306.042 42.4917H305.526V46.4189H306.042C306.343 46.4189 306.606 46.395 306.832 46.3472C307.057 46.2993 307.263 46.2104 307.45 46.0806C307.685 45.9211 307.861 45.7091 307.98 45.4448C308.098 45.1782 308.158 44.8467 308.158 44.4502Z" fill="black"/>
<path d="M80.879 29.028C83.191 29.674 84.925 30.711 86.081 32.139C87.271 33.533 87.866 35.267 87.866 37.341C87.866 40.673 86.795 43.291 84.653 45.195C82.545 47.065 79.485 48 75.473 48H63.335V11.892H73.994C78.108 11.892 81.202 12.725 83.276 14.391C85.35 16.057 86.387 18.42 86.387 21.48C86.387 25.118 84.551 27.634 80.879 29.028ZM68.18 15.972V27.294H73.994C76.374 27.294 78.176 26.818 79.4 25.866C80.658 24.88 81.287 23.418 81.287 21.48C81.287 17.808 78.856 15.972 73.994 15.972H68.18ZM75.473 43.92C77.819 43.92 79.621 43.359 80.879 42.237C82.137 41.115 82.766 39.483 82.766 37.341C82.766 35.369 82.069 33.89 80.675 32.904C79.315 31.884 77.326 31.374 74.708 31.374H68.18V43.92H75.473ZM136.587 11.943H141.483L131.844 48H124.449L116.595 17.91L108.69 48H101.295L91.6555 11.943H96.6025L105.069 43.512L113.382 11.943H119.757L128.07 43.614L136.587 11.943ZM145.471 29.844C145.471 24.064 146.899 19.559 149.755 16.329C152.611 13.099 156.708 11.484 162.046 11.484C167.384 11.484 171.481 13.099 174.337 16.329C177.193 19.559 178.621 24.064 178.621 29.844C178.621 35.692 177.176 40.282 174.286 43.614C171.396 46.912 167.316 48.561 162.046 48.561C156.742 48.561 152.645 46.912 149.755 43.614C146.899 40.316 145.471 35.726 145.471 29.844ZM162.046 44.481C165.718 44.481 168.54 43.257 170.512 40.809C172.518 38.327 173.521 34.672 173.521 29.844C173.521 25.118 172.518 21.565 170.512 19.185C168.54 16.771 165.718 15.564 162.046 15.564C158.374 15.564 155.535 16.754 153.529 19.134C151.557 21.514 150.571 25.084 150.571 29.844C150.571 34.706 151.557 38.361 153.529 40.809C155.535 43.257 158.374 44.481 162.046 44.481ZM204.988 48L196.267 33.159H196.165H190.402V48H185.506V11.892H196.165C200.279 11.892 203.373 12.827 205.447 14.697C207.521 16.533 208.558 19.134 208.558 22.5C208.558 25.05 207.929 27.192 206.671 28.926C205.447 30.626 203.628 31.816 201.214 32.496L210.343 48H204.988ZM190.402 29.079H196.165C198.511 29.079 200.313 28.518 201.571 27.396C202.829 26.274 203.458 24.642 203.458 22.5C203.458 20.358 202.829 18.743 201.571 17.655C200.347 16.533 198.545 15.972 196.165 15.972H190.402V29.079ZM215.887 11.892H220.732V48H215.887V11.892ZM235.93 11.892H242.56L228.28 28.314L243.682 48H237.256L221.854 28.518L235.93 11.892ZM246.217 44.175L264.424 16.023H246.829V11.892H270.544V15.513L252.235 43.767H270.289V48H246.217V44.175Z" fill="url(#paint0_linear_652_1316)"/>
<defs>
<linearGradient id="paint0_linear_652_1316" x1="66.5246" y1="34" x2="248.001" y2="33.2163" gradientUnits="userSpaceOnUse">
<stop stop-color="#524012"/>
<stop offset="0.501923" stop-color="#FFC73B"/>
<stop offset="1" stop-color="#524012"/>
</linearGradient>
</defs>
</svg>
